<?xml version="1.0" encoding="UTF-8"?>
<svg id="_レイヤー_1" data-name="レイヤー 1" xmlns="http://www.w3.org/2000/svg" width="294.8mm" height="153.5mm" viewBox="0 0 835.6 435.2">
  <path d="M370.6,187.2c2.5,0,4.9.9,7.5,1,37.2,2.6,82,.3,120,0,65.1-.6,136.4-6.7,200.8-2,17.2,1.3,34,3.9,49.9,11,28.7-13.4,42.8-45.6,47.4-75.6,1.8-11.6-1.6-32.6,15.6-31.4,14.8,1.1,22.2,21,23.4,33.6,3.9,43.1-13,89.8-56.8,104.3,4.3,12.4,7.9,24.2,9,37.4,2.5,30.7-4.6,122.1-22.5,146.3-14.5,19.5-46.5,24.1-68.1,15.3-3.2-1.3-7.5-5.7-9.8-6.2-4.4-.9-11.5,1.3-17,1-20.5-1.2-38.9-17.2-24.7-37.7,5.1-7.4,11.7-9.4,18.7-14.2.4-4.2,1.1-8.5,1.3-12.7s.7-1.3-1.3-1.3c-13.3,1.3-26.6,3-40,4-84.8,6.3-170.8,7.2-255.7,5-18.2-.5-36.3-.1-54.5-1.9-4.1,22.9-4.2,54.7-27.9,66.5-15.9,7.9-48.6,7.7-64.5-.5s-14.8-30.2-.9-42c2.5-2.2,9.9-5.9,10.9-8.1,2.3-4.7,1-11.9,2.1-17l-51.5-7c-1.7,24.6-.9,58.5-28.7,68.7-22.6,8.3-72.1,1.9-60-32,4.5-12.6,16.4-19.8,27.8-25.3l-4.2-88.2c-28-6.3-60.5-17.3-77.1-42.3-2.2-3.3-6.8-14.6-8.2-15.8s-8.3-3.1-11.2-4.8c-30.9-17.2-21.3-51.7-5.7-76,15.5-24.1,39.3-57.3,57.4-79.5C121.5-.9,207.5-17.5,276.8,19.8c38.9,21,66.8,63.9,82.4,104.4,7.3,19,14.7,42.6,11.5,62.9ZM123.9,413.9h16.5c1.9,0,12-4.6,14-6,7.8-5.7,11.1-18.4,12.4-27.6s1.2-35.3,3.4-38.1,3.3-2.2,4.3-2.3c9.7,1.5,19.4,3.6,29,4.8s28.8,1.7,38.6,4.4,4.4,2.1,4.8,5.2c.7,5.2-.7,25.9-2.8,30.2s-13.2,8.9-17.7,14.2c-6,7-7.2,17.4,3.5,20-1.2-6.9,4.2-21.8,13.3-16.1s-10,18.9,4.2,19.1c.8,0,1.7,0,2.5,0-1.2-7.2,4.4-23.7,14-19.5s-3.8,13.8-3,19.4c37.9,2,35.5-40.5,40.4-67,1.1-2.7,3.2-4.4,6.1-4.9,9.5-1.5,26.6,1.6,36.9,2,87.2,3.1,174.9.6,261.8-5s26-1,38.9-2c25.7-2.1,51.2-5.9,76.9-8,5.5,1.1,4.8,7.9,4.5,12.4-.5,6.7-4.7,28.9-7.2,34.8s-13,8.3-18.2,13.8-7.3,16.8,4.4,17.9c-2-7.7,8-22.4,16.3-17.1s-6.9,13.8-4.8,19.1c9.6,1.2,27.1-2.8,34-10,12.7-13.1,19.4-64.5,21.3-83.6,5.6-54.3,7.8-115.6-60.3-123.2-47-5.3-99.4-.5-146.8,0-64.2.7-128.7,1.9-192.8,0-1.4,0-2.9-1-4.1-.9-2.3,0-4.8,6.9-6.6,9.3-26,34.8-79.2,27.1-93.8-13.8-5.1-14.4-5.2-34.8-4-50,.6-7.2,3.5-30.1,6.2-35.8s8-6.4,11.8-2.2-.8,15.4-1.7,21.3c-3.7,24.5-9.1,60.4,11.7,78.6,22.7,19.9,62.1,7.5,65.8-23.1,4.3-34.9-29-99.5-52.3-125.3C250.1-1.7,144.3-.6,89.4,60.3c-26.9,29.9-20.5,55.3-30.7,90.1-4,13.5-12.4,25-15.2,38.7-7.9,38.7,25.2,61.4,57.7,71.2,12.4,3.7,29.7,1.8,29.7,18.2l3.8,90.6c-.9,9-10.1,9.1-16.7,13.4s-17,14.4-12.1,23,5.7,5.8,7,4.4c-.5-6.8,5.5-20.3,14-16.5s-4.3,14.5-3,20.5ZM760.3,207.1c4.3,1.4,7.5,6,10,9.6,25-6.3,42.1-28.1,48.5-52.5,4.8-18.6,6.8-44.2-6-59.9-2.3-.4-1.3,1-1.5,2.5-3.2,37.7-15.2,78.9-50.3,98.3l-.6,2.1ZM29,204.1c-4-20.5,10.7-37.8,16.3-56.2,3.6-11.9,4.4-24.7,7.7-36.7-9.2,11.6-20,24.1-27.8,36.7s-17.4,33.9-5.7,49.3,7.7,8.4,9.5,7ZM711.3,351l-32.9,4.1c-.6.7-.8,15.6-1.2,18.3-1.5,10.1-15.5,9.9-20.9,17.1s-5,13,3,15.5c.8-5.8,2.6-16.1,10.4-15s-.5,15.9,1.5,18l10-.5c2-3.2,2-7.1,3.5-10.5,4.5-10.2,14.7-12.8,21.9-20.1l4.6-26.9Z"/>
  <path d="M98.7,166.5c17.6-2,46.7,3.4,46.3,26.2-.6,31.4-60.8,33.6-71.9,7.9-8.1-18.9,8.3-32.1,25.6-34.1Z"/>
  <path d="M84.2,230.4c4.4-4.1,16.4,3.9,21.5,5.4,24.8,7.6,52.6,1.4,69.1-19.2,4.5-5.6,7.9-19,15.7-15.7,12.9,5.5-6.7,27.5-12.7,32.7-21.6,19-51.4,23.9-78.5,14.5s-21.6-7.8-15.2-17.8Z"/>
  <path d="M196.5,111.4c18.2-4,18.1,33.7,2.8,34.8-16.8,1.2-15.4-32.1-2.8-34.8Z"/>
  <path d="M100.2,113.5c.9-.9,4-2.1,5.3-2.3,17-1.9,15.5,32.1,3.7,34.7-16.2,3.6-18.1-24.2-9-32.4Z"/>
</svg>