<?xml version="1.0" encoding="UTF-8"?>
<svg id="_レイヤー_1" data-name=" レイヤー 1" xmlns="http://www.w3.org/2000/svg" width="115.8mm" height="200mm" viewBox="0 0 328.2 566.9">
  <defs>
    <style>
      .cls-1 {
        fill: #fff;
      }
    </style>
  </defs>
  <!-- Remove artificial left shift; let left edge be computed from actual bbox -->
  <g transform="translate(0,0)">
    <path d="M103.4,252.3c39.4-.4,82.9-4.4,121.9,0,56.6,6.4,54.7,57.3,50.1,102.4-1.6,15.8-7.1,58.5-17.7,69.4-5.8,5.9-20.2,9.2-28.2,8.3-1.8-4.4,9.8-12.1,4-15.8-6.9-4.4-15.2,7.7-13.6,14.2-9.7-.9-9.3-8.8-3.6-14.9,4.3-4.5,12.8-6,15.1-11.5,2.1-4.8,5.5-23.3,6-28.9.3-3.7.9-9.5-3.7-10.3-21.3,1.7-42.6,4.9-63.9,6.6-10.7.9-21.6,1-32.3,1.7-45.9,3-92,4.9-138.1,5.2v10.6c51.1.2,102.3-1.2,153-5,11.1-.8,22.1-2.3,33.2-3.3,1.7,0,1.1-.2,1.1,1.1-.1,3.5-.7,7.1-1.1,10.6-5.9,4-11.3,5.7-15.6,11.8-11.8,17,3.4,30.3,20.5,31.3,4.6.3,10.4-1.6,14.1-.8,1.9.4,5.4,4,8.1,5.1,17.9,7.3,44.5,3.5,56.5-12.7,14.9-20.1,20.8-96,18.7-121.5-.9-11-3.9-20.8-7.4-31.1,36.4-12,50.4-50.8,47.2-86.6-1-10.5-7.1-27-19.4-27.9-14.3-1-11.5,16.4-13,26-3.8,24.9-15.5,51.6-39.4,62.8-13.2-5.9-27.1-8.1-41.4-9.1-53.5-3.9-112.7,1.2-166.7,1.7-15.3.1-31.9.6-48.5.9v10.7c34.7.1,69.4-.4,104.1-.8h0ZM203,415.8c-1.2,2.8-1.2,6.1-2.9,8.8l-8.3.4c-1.7-1.7,6.4-13.9-1.3-15-6.5-.9-8,7.6-8.7,12.5-6.6-2.1-6.1-8-2.5-12.9,4.5-6,16.1-5.8,17.3-14.2.3-2.2.5-14.6,1-15.2l27.3-3.4-3.8,22.3c-6,6-14.5,8.2-18.2,16.7h0ZM266.1,255.6c29.2-16.1,39.1-50.4,41.8-81.7.1-1.2-.7-2.4,1.2-2.1,10.7,13,9,34.3,5,49.8-5.3,20.3-19.5,38.4-40.2,43.6-2.1-3-4.8-6.8-8.3-8l.5-1.7h0Z"/>
    <path class="cls-1" d="M137.4,373.5c10.7-.7,21.6-.8,32.3-1.7,21.3-1.8,42.6-4.9,63.9-6.6,4.6.9,4,6.6,3.7,10.3-.4,5.6-3.9,24-6,28.9-2.3,5.4-10.8,6.9-15.1,11.5-5.7,6-6,14,3.6,14.9-1.7-6.4,6.6-18.6,13.6-14.2,5.8,3.7-5.8,11.4-4,15.8,8,1,22.5-2.4,28.2-8.3,10.6-10.9,16.1-53.6,17.7-69.4,4.6-45.1,6.5-96-50.1-102.4-39-4.4-82.5-.4-121.9,0-34.7.4-69.4.9-104.1.8v125.5c46.1-.3,92.2-2.2,138.1-5.2h0Z"/>
    <path class="cls-1" d="M273.9,265.2c20.7-5.2,35-23.3,40.2-43.6,4-15.5,5.7-36.7-5-49.8-1.9-.4-1.1.8-1.2,2.1-2.6,31.3-12.6,65.6-41.8,81.7l-.5,1.7c3.5,1.2,6.2,5,8.3,8h0Z"/>
    <path class="cls-1" d="M225,376.8l-27.3,3.4c-.5.6-.7,13-1,15.2-1.3,8.4-12.9,8.2-17.3,14.2-3.6,4.8-4.1,10.8,2.5,12.9.7-4.8,2.2-13.4,8.7-12.5,7.7,1.1-.4,13.2,1.3,15l8.3-.4c1.7-2.7,1.6-5.9,2.9-8.8,3.7-8.5,12.2-10.6,18.2-16.7l3.8-22.3h0Z"/>
  </g>
  <!-- Remove background canvas-filling shapes to eliminate padding -->
</svg>