<?xml version="1.0" encoding="UTF-8"?>
<svg id="_レイヤー_1" data-name=" レイヤー 1" xmlns="http://www.w3.org/2000/svg" width="114.39mm" height="200mm" viewBox="0 0 324.25 566.93">
  <defs>
    <style>
      .cls-1 {
        fill: #fff;
      }
    </style>
  </defs>
  <!-- Align content to original coordinates; we'll make seams exact by removing artificial shifts -->
  <g transform="translate(0,0)">
    <path d="M285.79,377.62c-8.5-.3-22.74-2.87-30.61-1.64-2.38.37-4.17,1.83-5.07,4.05-4.03,22.02-2.06,57.29-33.55,55.63-.72-4.7,9.62-12.93,2.47-16.15-7.91-3.56-12.57,10.2-11.6,16.16-.69.01-1.38.04-2.08.03-11.74-.18,2.48-12.09-3.45-15.86-7.56-4.81-12.03,7.64-11.07,13.33-8.87-2.18-7.87-10.84-2.93-16.62,3.79-4.43,12.37-6.97,14.72-11.83,1.76-3.63,2.93-20.82,2.35-25.11-.34-2.55-1.45-3.65-3.96-4.33-8.14-2.22-22.89-2.43-32.05-3.62-8.04-1.05-16.09-2.82-24.11-4.02-.78.09-3.08,1.31-3.55,1.89-1.87,2.3-2.06,26.14-2.84,31.6-1.09,7.62-3.79,18.2-10.27,22.91-1.65,1.2-10.04,4.98-11.61,4.98h-13.69c-1.11-4.94,9.75-13.71,2.47-16.99-7.04-3.17-11.99,7.99-11.6,13.67-1.1,1.12-5.25-2.65-5.85-3.69-4.05-7.08,4.58-15.57,10.07-19.06,5.51-3.51,13.12-3.6,13.86-11.1l-3.15-75.24c-.03-13.66-14.41-12.03-24.69-15.14-27.03-8.18-54.51-27.01-47.93-59.15,2.33-11.38,9.36-20.97,12.65-32.15,8.53-28.92,3.17-50.05,25.53-74.86,45.55-50.54,133.47-51.45,179.23-.83,19.36,21.42,47,75.03,43.45,104.04-3.1,25.41-35.85,35.73-54.67,19.18-17.26-15.17-12.81-44.99-9.7-65.31.75-4.93,4.77-13.98,1.43-17.68-3.14-3.49-7.89-2.03-9.79,1.86-2.28,4.7-4.67,23.72-5.15,29.69-1.03,12.59-.96,29.5,3.29,41.49,12.06,33.98,56.25,40.36,77.86,11.46,1.48-1.97,3.55-7.66,5.46-7.7.97-.02,2.22.75,3.4.78,5.06.15,10.12.28,15.18.39v-10.58c-3.48-.15-6.9-.33-10.25-.56-2.1-.15-4.08-.89-6.19-.87,2.65-16.84-3.46-36.43-9.55-52.25-12.98-33.66-36.08-69.29-68.42-86.73-57.5-31.01-128.9-17.18-170.07,33.23-15.02,18.39-34.81,45.97-47.66,66-12.96,20.2-20.85,48.87,4.77,63.12,2.43,1.35,8.07,2.88,9.31,3.96,1.14.99,5.01,10.37,6.81,13.1,13.76,20.74,40.75,29.95,63.99,35.15l3.45,73.24c-9.47,4.6-19.37,10.55-23.1,21.03-10.02,28.18,31.06,33.52,49.82,26.59,23.08-8.52,22.4-36.63,23.83-57.06l42.78,5.79c-.96,4.18.14,10.22-1.75,14.08-.88,1.8-6.94,4.91-9.06,6.7-11.53,9.79-14.38,27.02.78,34.85,13.18,6.8,40.35,6.98,53.57.42,19.75-9.79,19.81-36.21,23.21-55.19,15.06,1.51,30.14,1.22,45.24,1.61,6.15.16,12.31.29,18.47.41v-10.21c-12.83-.17-25.65-.47-38.45-.92l.02.03ZM24.06,254.79c-1.54,1.18-6.9-4.47-7.9-5.78-9.74-12.75-2.69-29,4.74-40.93,6.48-10.4,15.38-20.84,23.07-30.44-2.74,9.98-3.4,20.6-6.4,30.52-4.62,15.28-16.81,29.62-13.51,46.63Z"/>
    <path class="cls-1" d="M305.66,251.52c-1.91.04-3.98,5.72-5.46,7.7-21.61,28.9-65.8,22.52-77.86-11.46-4.26-11.99-4.32-28.9-3.29-41.49.49-5.98,2.87-24.99,5.15-29.69,1.89-3.89,6.65-5.35,9.79-1.86,3.33,3.7-.68,12.76-1.43,17.68-3.11,20.32-7.55,50.14,9.7,65.31,18.82,16.54,51.57,6.23,54.67-19.18,3.54-29.01-24.09-82.62-43.45-104.04-45.76-50.62-133.68-49.71-179.23.83-22.36,24.81-17,45.94-25.53,74.86-3.3,11.18-10.32,20.76-12.65,32.15-6.58,32.14,20.9,50.97,47.93,59.15,10.27,3.11,24.66,1.48,24.69,15.14l3.15,75.24c-.73,7.5-8.35,7.59-13.86,11.1-5.48,3.49-14.12,11.98-10.07,19.06.59,1.04,4.75,4.81,5.85,3.69-.39-5.68,4.56-16.84,11.6-13.67,7.28,3.28-3.58,12.05-2.47,16.99h13.69c1.57,0,9.96-3.78,11.61-4.98,6.48-4.71,9.19-15.29,10.27-22.91.78-5.46.97-29.3,2.84-31.6.47-.58,2.77-1.8,3.55-1.89,8.02,1.21,16.07,2.97,24.11,4.02,9.16,1.2,23.91,1.4,32.05,3.62,2.51.68,3.62,1.78,3.96,4.33.57,4.29-.59,21.48-2.35,25.11-2.36,4.86-10.93,7.4-14.72,11.83-4.95,5.77-5.94,14.44,2.93,16.62-.96-5.7,3.51-18.14,11.07-13.33,5.93,3.77-8.28,15.68,3.45,15.86.7.01,1.39-.02,2.08-.03-.98-5.96,3.69-19.72,11.6-16.16,7.15,3.22-3.19,11.45-2.47,16.15,31.5,1.67,29.52-33.61,33.55-55.63.91-2.22,2.69-3.68,5.07-4.05,7.87-1.23,22.11,1.35,30.61,1.64,12.81.45,25.63.75,38.45.92v-125.85c-5.06-.11-10.12-.23-15.18-.39-1.18-.04-2.43-.8-3.4-.78h0ZM83.23,179.56c.78-.71,3.34-1.78,4.39-1.9,14.12-1.55,12.87,26.64,3.06,28.84-13.43,3.02-14.99-20.09-7.45-26.95h0ZM60.66,251.8c-6.76-15.67,6.86-26.66,21.29-28.3,14.61-1.66,38.77,2.83,38.41,21.75-.5,26.07-50.49,27.92-59.71,6.55h0ZM147.7,279.29c-17.95,15.79-42.72,19.82-65.17,12.05-6.22-2.15-17.95-6.5-12.62-14.75,3.64-3.44,13.58,3.21,17.86,4.53,20.61,6.32,43.72,1.13,57.41-15.96,3.75-4.69,6.55-15.82,13.07-13.05,10.7,4.54-5.59,22.82-10.55,27.18ZM165.51,206.73c-13.94,1.01-12.83-26.63-2.29-28.93,15.14-3.3,15.07,28,2.29,28.93h0Z"/>
    <path class="cls-1" d="M43.97,177.64c-7.68,9.6-16.58,20.04-23.07,30.44-7.43,11.93-14.49,28.18-4.74,40.93,1,1.3,6.36,6.96,7.9,5.78-3.3-17.01,8.89-31.35,13.51-46.63,3-9.91,3.66-20.53,6.4-30.52Z"/>
    <path d="M120.37,245.25c.36-18.92-23.8-23.42-38.41-21.75-14.43,1.64-28.05,12.63-21.29,28.3,9.21,21.37,59.21,19.52,59.71-6.55h-.01Z"/>
    <path d="M158.25,252.1c-6.52-2.77-9.32,8.36-13.07,13.05-13.69,17.09-36.79,22.28-57.41,15.96-4.27-1.31-14.22-7.97-17.86-4.53-5.34,8.25,6.4,12.59,12.62,14.75,22.45,7.78,47.22,3.74,65.17-12.05,4.96-4.36,21.25-22.64,10.55-27.18h0Z"/>
    <path d="M163.22,177.8c-10.54,2.3-11.65,29.94,2.29,28.93,12.78-.93,12.85-32.23-2.29-28.93h0Z"/>
    <path d="M90.67,206.51c9.81-2.21,11.06-30.39-3.06-28.84-1.05.11-3.61,1.19-4.39,1.9-7.54,6.86-5.98,29.97,7.45,26.95h0Z"/>
  </g>
  <!-- Removed background full-canvas shape to eliminate artificial margins inside viewBox -->
</svg>